<?xml version="1.0" encoding="UTF-8" standalone="no"?>
<!-- Created with Inkscape (http://www.inkscape.org/) -->

<svg
   xmlns:dc="http://purl.org/dc/elements/1.1/"
   xmlns:cc="http://creativecommons.org/ns#"
   xmlns:rdf="http://www.w3.org/1999/02/22-rdf-syntax-ns#"
   xmlns:svg="http://www.w3.org/2000/svg"
   xmlns="http://www.w3.org/2000/svg"
   xmlns:xlink="http://www.w3.org/1999/xlink"
   xmlns:sodipodi="http://sodipodi.sourceforge.net/DTD/sodipodi-0.dtd"
   xmlns:inkscape="http://www.inkscape.org/namespaces/inkscape"
   width="744.09448819"
   height="1052.3622047"
   id="svg2"
   version="1.1"
   inkscape:version="0.47pre1 r21720"
   sodipodi:docname="icon.svg"
   inkscape:output_extension="org.inkscape.output.svg.inkscape"
   inkscape:export-filename="/Users/francois/Documents/GPS Body Paint/Gfx/icon/icon_big.png"
   inkscape:export-xdpi="72.024391"
   inkscape:export-ydpi="72.024391">
  <defs
     id="defs4">
    <inkscape:perspective
       sodipodi:type="inkscape:persp3d"
       inkscape:vp_x="0 : 526.18109 : 1"
       inkscape:vp_y="0 : 1000 : 0"
       inkscape:vp_z="744.09448 : 526.18109 : 1"
       inkscape:persp3d-origin="372.04724 : 350.78739 : 1"
       id="perspective10" />
    <inkscape:perspective
       id="perspective2923"
       inkscape:persp3d-origin="0.5 : 0.33333333 : 1"
       inkscape:vp_z="1 : 0.5 : 1"
       inkscape:vp_y="0 : 1000 : 0"
       inkscape:vp_x="0 : 0.5 : 1"
       sodipodi:type="inkscape:persp3d" />
    <inkscape:perspective
       id="perspective3807"
       inkscape:persp3d-origin="0.5 : 0.33333333 : 1"
       inkscape:vp_z="1 : 0.5 : 1"
       inkscape:vp_y="0 : 1000 : 0"
       inkscape:vp_x="0 : 0.5 : 1"
       sodipodi:type="inkscape:persp3d" />
    <inkscape:perspective
       id="perspective2843"
       inkscape:persp3d-origin="0.5 : 0.33333333 : 1"
       inkscape:vp_z="1 : 0.5 : 1"
       inkscape:vp_y="0 : 1000 : 0"
       inkscape:vp_x="0 : 0.5 : 1"
       sodipodi:type="inkscape:persp3d" />
    <inkscape:perspective
       id="perspective3688"
       inkscape:persp3d-origin="0.5 : 0.33333333 : 1"
       inkscape:vp_z="1 : 0.5 : 1"
       inkscape:vp_y="0 : 1000 : 0"
       inkscape:vp_x="0 : 0.5 : 1"
       sodipodi:type="inkscape:persp3d" />
    <inkscape:perspective
       id="perspective3716"
       inkscape:persp3d-origin="0.5 : 0.33333333 : 1"
       inkscape:vp_z="1 : 0.5 : 1"
       inkscape:vp_y="0 : 1000 : 0"
       inkscape:vp_x="0 : 0.5 : 1"
       sodipodi:type="inkscape:persp3d" />
    <inkscape:perspective
       id="perspective3757"
       inkscape:persp3d-origin="0.5 : 0.33333333 : 1"
       inkscape:vp_z="1 : 0.5 : 1"
       inkscape:vp_y="0 : 1000 : 0"
       inkscape:vp_x="0 : 0.5 : 1"
       sodipodi:type="inkscape:persp3d" />
  </defs>
  <sodipodi:namedview
     id="base"
     pagecolor="#ffffff"
     bordercolor="#666666"
     borderopacity="1.0"
     inkscape:pageopacity="0.0"
     inkscape:pageshadow="2"
     inkscape:zoom="0.35"
     inkscape:cx="1352.7633"
     inkscape:cy="472.6613"
     inkscape:document-units="px"
     inkscape:current-layer="layer1"
     showgrid="false"
     inkscape:window-width="1198"
     inkscape:window-height="922"
     inkscape:window-x="471"
     inkscape:window-y="92"
     inkscape:window-maximized="0"
     inkscape:snap-global="false" />
  <metadata
     id="metadata7">
    <rdf:RDF>
      <cc:Work
         rdf:about="">
        <dc:format>image/svg+xml</dc:format>
        <dc:type
           rdf:resource="http://purl.org/dc/dcmitype/StillImage" />
        <dc:title></dc:title>
      </cc:Work>
    </rdf:RDF>
  </metadata>
  <g
     inkscape:label="Layer 1"
     inkscape:groupmode="layer"
     id="layer1">
    <image
       y="-302.4455"
       x="186.06845"
       id="image3809"
       height="1459.1671"
       width="1945.5563"
       xlink:href="file:///Users/francois/Documents/GPS%20Body%20Paint/Gfx/icon/P1020112.JPG" />
    <path
       style="fill:#ffffff;stroke:none;stroke-width:20.25300026000000031;stroke-miterlimit:4;stroke-opacity:1;stroke-dasharray:none;fill-opacity:1"
       d="M 28.28125 -410.34375 L 28.28125 1250.3438 L 2379.9062 1250.3438 L 2379.9062 -410.34375 L 28.28125 -410.34375 z M 884.90625 -105.28125 L 1838.4688 -105.28125 L 1838.4688 848.3125 L 884.90625 848.3125 L 884.90625 -105.28125 z "
       id="rect3819" />
    <image
       y="125.7298"
       x="65.571449"
       id="image2925"
       height="776.4895"
       width="628.85712"
       xlink:href="file:///Users/francois/Documents/GPS%20Body%20Paint/Gfx/icon/bonhomme.png"
       sodipodi:insensitive="true" />
    <g
       id="g3775"
       transform="matrix(0.92032899,0.59908153,-0.59908153,0.92032899,339.61736,-817.64824)"
       style="fill:#0a85bf;fill-opacity:1">
      <path
         sodipodi:nodetypes="ccccccccccccccccccccccccc"
         id="path2950"
         d="m 1348.4229,400.836 116.6726,115.15739 3.5355,208.5965 -57.0736,1.01015 -3.0304,-183.34269 -93.9442,-93.94418 2.5254,181.82745 -188.3935,1.51523 -0.505,-57.57869 132.835,-2.02031 -2.0203,-213.64726 92.429,-192.43406 -90.4087,1.51523 -17.6776,112.12693 -57.5787,0 28.2842,-164.14979 164.6549,-3.53553 c 0,0 4.328,15.07637 12.1218,29.29442 15.3287,18.6061 34.9805,37.63672 63.6396,38.89088 0.1,-0.21273 1.0101,122.22845 1.0101,122.22845 l 115.6625,-2.0203 0,54.54824 -170.2107,2.0203 -1.5152,-54.54824 -51.0127,98.48988 z"
         style="fill:#0a85bf;fill-opacity:1;stroke:#ffffff;stroke-width:20.25300026;stroke-linecap:butt;stroke-linejoin:miter;stroke-miterlimit:4;stroke-opacity:1;stroke-dasharray:none" />
      <path
         transform="matrix(-1.1050175,0,0,1.1050175,1771.6418,-167.49946)"
         d="m 329.99999,228.07646 c 0,33.53158 -27.18271,60.71429 -60.71428,60.71429 -33.53158,0 -60.71429,-27.18271 -60.71429,-60.71429 0,-33.53157 27.18271,-60.71429 60.71429,-60.71429 33.53157,0 60.71428,27.18272 60.71428,60.71429 z"
         sodipodi:ry="60.714287"
         sodipodi:rx="60.714287"
         sodipodi:cy="228.07646"
         sodipodi:cx="269.28571"
         id="path2965"
         style="fill:#0a85bf;fill-opacity:1;stroke:#ffffff;stroke-width:18.32821655;stroke-miterlimit:4;stroke-opacity:1;stroke-dasharray:none"
         sodipodi:type="arc" />
    </g>
    <g
       id="g3771">
      <path
         style="fill:none;stroke:#000000;stroke-width:20.25300026;stroke-linecap:butt;stroke-linejoin:miter;stroke-miterlimit:4;stroke-opacity:1;stroke-dasharray:none"
         d="m -285.86283,717.97886 116.6726,115.15739 3.5355,208.59655 -57.0736,1.0101 -3.0304,-183.34269 -93.9442,-93.94418 2.5254,181.82745 -188.3935,1.51523 -0.505,-57.57869 132.835,-2.02031 -2.0203,-213.64726 92.429,-192.43406 -90.4087,1.51523 -17.6776,112.12693 -57.5787,0 28.2842,-164.14979 164.6549,-3.53553 c 0,0 4.328,15.07637 12.1218,29.29442 15.3287,18.6061 34.9805,37.63672 63.6396,38.89088 0.1,-0.21273 1.0101,122.22845 1.0101,122.22845 l 115.662501,-2.0203 0,54.54824 -170.210701,2.0203 -1.5152,-54.54824 -51.0127,98.48988 z"
         id="path3763"
         sodipodi:nodetypes="ccccccccccccccccccccccccc" />
      <path
         sodipodi:type="arc"
         style="fill:none;stroke:#000000;stroke-width:18.32821655;stroke-miterlimit:4;stroke-opacity:1;stroke-dasharray:none"
         id="path3765"
         sodipodi:cx="269.28571"
         sodipodi:cy="228.07646"
         sodipodi:rx="60.714287"
         sodipodi:ry="60.714287"
         d="m 329.99999,228.07646 a 60.714287,60.714287 0 1 1 -121.42857,0 60.714287,60.714287 0 1 1 121.42857,0 z"
         transform="matrix(-1.1050175,0,0,1.1050175,137.35607,149.6434)" />
    </g>
  </g>
</svg>
